<?xml version="1.0" standalone="no"?>
<!DOCTYPE svg PUBLIC "-//W3C//DTD SVG 20010904//EN"
 "http://www.w3.org/TR/2001/REC-SVG-20010904/DTD/svg10.dtd">
<svg version="1.0" xmlns="http://www.w3.org/2000/svg"
 width="172.000000pt" height="29.000000pt" viewBox="0 0 172.000000 29.000000"
 preserveAspectRatio="xMidYMid meet">

<g transform="translate(0.000000,29.000000) scale(0.100000,-0.100000)"
fill="#000000" stroke="none">
<path d="M230 170 l0 -110 25 0 c22 0 24 4 27 58 3 56 3 57 33 57 30 0 30 -1
33 -58 3 -54 4 -57 29 -57 25 0 25 1 21 66 -5 78 -22 97 -80 92 -37 -3 -38 -3
-38 29 0 29 -3 33 -25 33 l-25 0 0 -110z"/>
<path d="M38 241 c-28 -25 -33 -36 -33 -76 0 -40 5 -51 33 -76 39 -35 106 -40
142 -11 20 16 21 19 6 31 -13 11 -20 11 -28 3 -19 -19 -66 -14 -88 8 -41 41
-13 110 44 110 17 0 37 -5 44 -12 8 -8 15 -8 28 3 15 12 14 15 -6 31 -36 29
-103 24 -142 -11z"/>
<path d="M1188 254 c-36 -19 -48 -43 -48 -94 0 -79 85 -124 165 -88 29 13 31
21 11 37 -10 8 -16 9 -21 1 -7 -12 -64 -13 -82 -2 -6 4 -16 20 -22 35 -22 57
29 103 90 80 22 -9 31 -8 40 3 30 36 -77 59 -133 28z"/>
<path d="M1382 254 c-26 -18 -30 -65 -7 -84 8 -6 33 -18 57 -24 48 -15 58 -30
30 -45 -13 -7 -31 -7 -57 0 -29 8 -40 8 -46 -3 -13 -20 19 -38 71 -38 113 0
129 92 21 123 -25 7 -46 18 -48 24 -7 20 31 33 66 23 26 -7 33 -6 38 7 3 8 0
19 -8 24 -23 14 -93 10 -117 -7z"/>
<path d="M1573 255 c-15 -11 -23 -26 -23 -45 0 -33 25 -54 77 -65 18 -4 36
-11 39 -17 9 -14 -25 -39 -45 -34 -62 19 -71 18 -71 -2 0 -22 25 -32 83 -32
39 0 87 34 87 63 0 21 -33 47 -74 58 -34 10 -56 32 -43 45 9 9 49 9 75 0 21
-7 23 -5 20 16 -3 20 -9 23 -53 26 -33 2 -57 -3 -72 -13z"/>
<path d="M451 211 c-21 -13 -2 -34 24 -27 29 8 55 -2 55 -20 0 -10 -12 -14
-38 -14 -43 0 -62 -14 -62 -47 0 -30 25 -41 93 -41 l57 1 0 62 c0 47 -4 66
-18 78 -20 18 -87 23 -111 8z m81 -96 c1 -15 -27 -29 -45 -22 -26 10 -9 39 20
35 13 -2 24 -7 25 -13z"/>
<path d="M620 140 c0 -79 0 -80 25 -80 23 0 25 4 25 48 0 58 10 75 41 70 22
-3 24 -9 27 -60 3 -50 6 -58 22 -58 17 0 20 7 20 48 0 58 10 75 41 70 22 -3
24 -9 27 -60 3 -54 5 -58 27 -58 23 0 25 3 25 53 0 28 -6 63 -13 77 -11 22
-19 25 -57 23 -60 -3 -55 -3 -137 2 l-73 4 0 -79z"/>
<path d="M940 108 c0 -108 0 -109 23 -106 16 2 23 11 25 33 3 29 5 31 38 27
49 -6 84 27 84 79 0 59 -28 78 -106 77 l-64 -1 0 -109z m112 65 c33 -30 16
-73 -29 -73 -33 0 -49 35 -28 66 18 28 32 30 57 7z"/>
<path d="M106 194 c-3 -9 -12 -14 -20 -11 -10 4 -12 0 -9 -14 8 -28 69 -27 76
1 3 13 1 18 -5 13 -6 -3 -17 2 -23 11 -12 15 -13 15 -19 0z"/>
<path d="M1246 194 c-3 -9 -12 -14 -20 -11 -10 4 -12 0 -9 -14 8 -28 69 -27
76 1 3 13 1 18 -5 13 -6 -3 -17 2 -23 11 -12 15 -13 15 -19 0z"/>
<path d="M103 133 c9 -2 23 -2 30 0 6 3 -1 5 -18 5 -16 0 -22 -2 -12 -5z"/>
<path d="M1243 133 c9 -2 23 -2 30 0 6 3 -1 5 -18 5 -16 0 -22 -2 -12 -5z"/>
</g>
</svg>
